# Alias OBJ Model File
# Exported from SketchUp, (c) 2000-2012 Trimble Navigation Limited
# File units = meters

mtllib propeller.mtl

g Mesh1 Group1 Model

usemtl _Orange_
v 0.0369302 1.01361 0.0850251
vt 8.15344 27.6772
vn -0.58752 -0.010814 0.809137
v 0.0715522 1.01312 0.121952
vt 9.01689 27.6772
vn -0.729537 -0.00913995 0.68388
v 0.0369302 1.1567 0.0869375
vt 8.15344 30.1181
f 1/1/1 2/2/2 3/3/1

usemtl _Red_
v 0.0372899 0.157122 0.073962
vt 8.16241 13.0668
f 1/1/1 4/4/2 2/2/2

v 0.0369302 0.157321 0.073581
vt 8.15344 13.0701
f 4/4/2 1/1/1 5/5/1

vt 14.0553 27.6772
v 0.0362374 0.1576 0.07326
vt 14.0423 13.0748
vn -0.270021 0.00040691 0.962854
vt 14.0553 13.0701
f 1/6/1 6/7/3 5/8/1

v -0.0264511 1.01401 0.0553178
vt 12.8614 27.6772
f 6/7/3 1/6/1 7/9/3

usemtl _Orange_
vt 14.0553 30.1181
f 3/10/1 7/9/3 1/6/1

v -0.0369302 1.15716 0.0523186
vt 12.6639 30.1181
f 7/9/3 3/10/1 8/11/3

vt 16.27 30.3284
v -0.0715522 1.01407 0.0504062
vt 15.683 27.8866
vn -0.108235 0.0129029 0.994042
vt 16.4568 27.8866
f 8/12/3 9/13/4 7/14/3

usemtl _Red_
v 0.0357245 0.15776 0.073202
vt 17.5653 13.2819
vn -0.0541982 0.0197868 0.998334
f 10/15/5 7/14/3 9/13/5

vt 17.5741 13.2792
f 7/14/3 10/15/5 6/16/3

vt 16.4961 27.9194
v 0.0350149 0.157962 0.0731966
vt 18.3138 13.3115
vn -8.98421e-016 0.0266115 0.999646
vt 18.3259 13.308
f 9/17/5 11/18/6 10/19/5

v -1.80478e-016 0.167095 0.0729535
vt 17.7165 13.4673
f 11/18/6 9/17/5 12/20/6

v -0.0372635 0.156472 0.0732363
vt 17.0809 13.2861
f 9/17/5 13/21/6 12/20/6

usemtl _Orange_
vt 16.7294 -3.38539
vn 0.0760659 0.963056 0.258334
v 0.0715522 0.128685 0.147065
vt 16.6783 -5.26001
vn 0.431259 0.848853 0.305718
vt 17.1439 -3.84276
vn 0.249908 0.936127 0.247409
f 12/22/7 14/23/8 11/24/9

v -1.80478e-016 0.147148 0.147312
vt 15.8222 -4.33486
vn -0.00665214 0.946703 0.322038
f 14/23/8 12/22/7 15/25/10

v -1.80478e-016 0.186019 0.00240592
vt 6.47155 21.6467
vn 0.0836376 0.963419 0.254615
vt 8.31476 19.8715
vt 7.36892 20.7824
f 16/26/11 15/27/10 12/28/7

v -0.0900173 0.160631 0.00206662
vt 5.44413 20.4262
vn -0.40512 0.87965 0.249186
f 15/27/10 16/26/11 17/29/12

vt 8.54706 19.5988
vt 5.68412 20.1919
v -0.0715522 0.128685 0.147065
vt 7.71754 18.6498
vn -0.469787 0.822849 0.319718
f 15/30/10 17/31/12 18/32/13

vt 0.810716 21.0031
vt -1.63865 21.7198
v -0.156953 0.0960093 0.00120296
vt -2.00686 20.1761
vn -0.791848 0.556596 0.251351
f 18/33/13 17/34/12 19/35/14

vt 0.941024 20.9302
vt -1.88087 20.1181
v -0.124639 0.0756026 0.146356
vt 0.642492 19.6849
vn -0.824934 0.466687 0.318885
f 18/36/13 19/37/14 20/38/15

vt -3.31232 15.6067
v -0.143104 0.00405676 0.1454
vt -0.850337 14.0243
vn -0.951629 0.00454593 0.307215
vt -0.77268 15.2824
f 19/39/14 21/40/16 20/41/15

v -0.180035 0.006 -0
vt -3.40939 14.0246
vn -0.969179 -0.00301249 0.246339
f 21/40/16 19/39/14 22/42/17

vt -3.41611 6.3096
v -0.150183 -0.0409565 0.0704666
vt -2.11553 5.50092
vn -0.942084 -0.240674 0.23357
vt -0.857056 6.3096
f 22/43/17 23/44/18 21/45/16

v -0.156953 -0.0840093 -0.00120296
vt -3.3192 4.72746
vn -0.883812 -0.403621 0.236574
f 23/44/18 22/43/17 24/46/19

vt -3.38022 4.83212
v -0.150149 -0.0411871 0.0703692
vt -2.17728 5.60044
vn -0.942809 -0.238831 0.232531
vt -2.17587 5.60451
f 24/47/19 25/48/20 23/49/18

v -0.149932 -0.0421541 0.070256
vt -2.17805 5.58344
f 25/48/20 24/47/19 26/50/20

v -0.141264 -0.0771087 0.0694985
vt -2.14699 4.96981
vn -0.884875 -0.401864 0.235587
f 26/50/20 24/47/19 27/51/21

v -0.0900173 -0.150939 -0.00209747
vt -1.75544 -6.48644
vn -0.549069 -0.802662 0.232931
vt -0.889377 -4.72823
vt -2.11649 -4.91267
f 28/52/22 27/53/21 24/54/19

v -0.124639 -0.069797 0.144413
vt 0.410847 -4.5328
vn -0.819885 -0.485776 0.303002
f 27/53/21 28/52/22 29/55/23

v -0.0715522 -0.120571 0.143734
vt 1.09485 -6.0679
vn -0.472468 -0.830599 0.294754
vt 0.788657 -4.85283
vt -1.34586 -6.84113
f 30/56/24 29/57/23 28/58/22

v -0.0646278 -0.0374606 0.315662
vt 6.5415 -3.11229
vn -0.738038 -0.504331 0.448275
vt 3.50073 -3.91112
vt 3.94513 -5.08273
f 31/59/25 29/60/23 30/61/24

vt 1.5201 4.62887
vt 4.6039 5.24088
v -0.0761685 0.00177422 0.316186
vt 4.52907 5.93449
vn -0.889748 -0.0468161 0.454046
f 29/62/23 31/63/25 32/64/26

vt 8.03262 6.09998
v -1.80478e-016 0.0003245 0.424659
vt 10.1805 6.78839
vn -3.73706e-015 -0.00572431 0.999984
vt 7.91951 6.78839
f 31/65/25 33/66/27 32/67/26

v -0.0369302 -0.0651558 0.315292
vt 10.4801 -0.411965
vn -0.399589 -0.801598 0.444714
vt 12.2523 0.996457
vn -3.77028e-015 -0.00572431 0.999984
vt 10.1533 0.17083
f 34/68/28 33/69/29 31/70/25

vt 16.6901 1.49335
vn -3.77858e-015 -0.00572431 0.999984
vt 15.476 -0.41721
v -1.80478e-016 -0.0743875 0.315169
vt 16.0694 -0.680736
vn 0.053841 -0.89473 0.443349
f 33/71/30 34/72/28 35/73/31

vt 14.1085 -5.87295
vt 13.5724 -5.50672
v -1.80478e-016 -0.141343 0.143456
vt 12.5793 -8.61965
vn 0.00248025 -0.955849 0.293846
f 35/74/31 34/75/28 36/76/32

vt 11.4832 -9.31422
vt 12.6955 -6.27996
vt 10.4983 -8.51103
f 36/77/32 34/78/28 30/79/24

vt 3.65343 -4.81453
vt 6.49717 -3.50363
vt 6.27252 -2.8744
f 30/80/24 34/81/28 31/82/25

vt 7.55107 -12.8435
vt 6.77714 -11.8355
v -1.80478e-016 -0.174019 -0.00240592
vt 5.63323 -14.5235
vn -0.0929171 -0.970435 0.22276
f 36/83/32 30/84/24 37/85/33

vt 7.34889 -14.1047
vt 8.24806 -11.3252
vt 6.26664 -12.9466
f 37/86/33 30/87/24 28/88/22

v 0.0900173 -0.150939 -0.00209747
vt 18.4084 11.238
vn 0.411242 -0.881943 0.23034
vt 15.5461 11.834
vt 17.3637 10.0459
f 38/89/34 36/90/32 37/91/33

vt 18.2234 11.718
v 0.0715522 -0.120571 0.143734
vt 16.1631 13.2379
vn 0.474798 -0.829018 0.295459
vt 15.3505 12.2608
f 38/92/34 39/93/35 36/94/32

vt 13.1861 16.5061
v 0.115196 -0.101886 0.0696639
vt 12.1828 17.6792
vn 0.67758 -0.701012 0.222411
vt 10.7407 17.2641
f 38/95/34 40/96/36 39/97/35

v 0.156953 -0.0840093 -0.00120296
vt 13.5625 18.0763
vn 0.791489 -0.564418 0.234473
f 40/96/36 38/95/34 41/98/37

vt 13.3987 18.3092
v 0.141263 -0.0771085 0.0695007
vt 12.1721 18.4975
vn 0.787897 -0.571011 0.230576
vt 12.0216 17.9028
f 41/99/37 42/100/38 40/101/36

v 0.180035 0.006 -0
vt 12.0818 14.6043
vn 0.966304 -0.0837241 0.243409
vt 10.7528 13.1599
vt 11.9861 13.022
f 43/102/39 42/103/38 41/104/37

v 0.124639 -0.069797 0.144413
vt 9.44619 13.306
vn 0.82427 -0.478092 0.303326
f 42/103/38 43/102/39 44/105/40

vt 12.1381 14.5027
v 0.143104 0.00405676 0.1454
vt 9.57904 14.5027
vn 0.946256 -0.0558515 0.318559
vt 9.50151 13.2064
f 43/106/39 45/107/41 44/108/40

vt 12.1458 5.72388
v 0.124639 0.0756026 0.146356
vt 9.50911 6.98168
vn 0.819545 0.478128 0.315815
vt 9.58676 5.72362
f 43/109/39 46/110/42 45/111/41

v 0.156953 0.0960093 0.00120296
vt 12.0487 7.30601
vn 0.837232 0.484157 0.254232
f 46/110/42 43/109/39 47/112/43

vt 13.6305 -3.15258
v 0.0900173 0.160631 0.00206662
vt 13.2498 -1.61187
vn 0.557043 0.79242 0.248544
vt 11.1084 -3.59278
f 47/113/43 48/114/44 46/115/42

vt 12.9604 -1.48237
vt 10.5077 -2.18785
vt 10.7941 -3.43602
f 48/116/44 14/117/8 46/118/42

vt 18.0374 -4.69984
vt 16.5053 -4.78398
vt 15.9503 -6.16867
f 48/119/44 11/120/9 14/121/8

vt 17.0372 -3.45699
f 11/120/9 48/119/44 16/122/11

vt 17.59 -2.48457
f 11/24/9 16/123/11 12/22/7

v 0.0369302 0.0663963 0.31705
vt 10.51 -1.26309
vn 0.394676 0.792414 0.465092
vt 13.7834 -1.10617
vt 13.3446 0.0968782
f 49/124/45 46/125/42 14/126/8

v 0.0646278 0.0387011 0.31668
vt 10.7389 -1.89076
vn 0.753334 0.449769 0.479788
f 46/125/42 49/124/45 50/127/46

vt 14.2121 1.61243
vt 13.8892 2.19736
vt 12.1079 0.832511
vn -3.75367e-015 -0.00572431 0.999984
f 50/128/46 49/129/45 33/130/47

vt 17.86 3.08291
v -1.80478e-016 0.075628 0.317173
vt 17.2686 3.35113
vn -0.0479275 0.884494 0.464082
vt 16.6308 1.20535
vn -3.74121e-015 -0.00572431 0.999984
f 49/131/45 51/132/48 33/133/49

vt 16.5872 -2.29486
vt 17.5803 0.818065
vt 16.051 -1.92863
f 49/134/45 15/135/10 51/136/48

vt 18.5211 -0.13585
vt 17.4928 0.593101
vt 16.4542 -2.50494
f 14/137/8 15/138/10 49/139/45

vt 12.3873 17.7904
vt 11.3577 17.0633
vt 13.9518 15.0636
f 15/140/10 18/141/13 51/142/48

vt 14.0677 14.8963
vt 11.4928 16.9205
v -0.0369302 0.0663963 0.31705
vt 13.5328 14.5282
vn -0.433796 0.75992 0.484089
f 51/143/48 18/144/13 52/145/50

vt 3.82769 20.5027
v -0.0646278 0.0387011 0.31668
vt 6.43331 18.515
vn -0.790803 0.407791 0.45644
vt 6.66227 19.1427
f 18/146/13 53/147/51 52/148/50

vt 3.38884 19.2996
f 53/147/51 18/146/13 20/149/15

vt 1.30044 13.8965
vt 4.50308 14.5443
vt 1.41833 15.1515
f 21/150/16 53/151/51 20/152/15

vt 1.13831 14.5144
vt 4.26743 14.5144
vt 4.33925 15.1704
f 21/153/16 32/154/26 53/155/51

vt 1.25323 5.28792
vt 4.26743 6.58144
vt 1.13831 6.58144
f 29/156/23 32/157/26 21/158/16

vt -0.840281 5.1157
vt -0.91667 6.41207
f 23/49/18 29/159/23 21/160/16

f 29/159/23 23/49/18 27/51/21

f 27/51/21 23/49/18 25/48/20

usemtl _Red_
v -0.150357 -0.0398231 0.0709462
vt 16.067 8.15414
vn 0.262029 -0.479061 0.837759
vt 16.0725 8.12922
vn 0.110453 -0.236702 0.965283
vt 16.0716 8.13343
vn 0.193125 -0.357048 0.913903
f 54/161/52 25/162/53 23/163/54

v -0.897259 -0.458127 0.0653556
vt 3.59962 0.552269
f 55/164/52 25/162/53 54/161/52

v -0.863448 -0.516296 0.0354849
vt 4.26609 -0.511906
f 25/162/53 55/164/52 56/165/53

usemtl _Orange_
v -1.03866 -0.53732 0.0642972
vt 1.23931 -0.886903
f 57/166/52 56/165/53 55/164/52

v -1.00173 -0.608403 0.0287221
vt 1.97726 -2.18711
f 56/165/53 57/166/52 58/167/53

v -0.858627 -0.571476 0.0292156
vt 3.23693 -0.0095232
vn -0.00502172 -0.0706158 0.997491
vt 3.15234 0.937531
vt 0.796762 -0.642454
f 59/168/55 56/169/53 58/170/53

v -0.839709 -0.557347 0.0303111
vt 3.55911 0.23286
f 56/169/53 59/168/55 60/171/55

vt 3.15936 0.756783
vt 2.83634 0.515517
v -0.838674 -0.559141 0.030293
vt 3.17701 0.726183
vn -0.0351657 -0.0303676 0.99892
f 60/172/55 59/173/55 61/174/56

usemtl _Red_
v -0.109714 -0.108471 0.0696557
vt 15.6233 8.42269
f 62/175/56 60/172/55 61/174/56

vt 15.0851 8.95763
f 60/172/55 62/175/56 27/176/56

vt 14.9375 9.55407
f 60/172/55 27/176/56 26/177/55

usemtl _Orange_
f 27/51/21 25/48/20 26/50/20

usemtl _Red_
vt 15.3067 9.07089
vt 15.303 9.08749
f 56/169/53 26/178/55 25/179/53

f 26/178/55 56/169/53 60/171/55

usemtl _Orange_
vt 4.60854 -0.547749
v -0.930179 -0.429341 0.102674
vt 3.84282 0.0648338
vn 0.324269 -0.588891 0.740309
vt 2.39557 -2.20457
f 55/180/52 63/181/57 57/182/52

v -0.917753 -0.42312 0.102179
vt 4.04122 0.194808
f 63/181/57 55/180/52 64/183/57

usemtl _Red_
vt 16.2977 8.20376
f 54/184/52 64/183/57 55/180/52

v -0.150402 -0.0390023 0.0716187
vt 16.2925 8.22112
f 64/183/57 54/184/52 65/185/57

usemtl _Orange_
vt 7.91951 13.7385
vt 10.1805 13.7385
vn -3.72045e-015 -0.00572431 0.999984
vt 8.03262 14.3887
f 32/186/26 33/187/58 53/188/51

vt 10.3266 17.4491
vt 10.0037 16.8641
vt 12.1079 16.0842
f 52/189/50 53/190/51 33/191/58

vt 15.993 13.2377
vt 15.4017 12.9695
vt 16.6308 11.0919
f 51/192/48 52/193/50 33/194/47

v 0.0761685 0.00177422 0.316186
vt 12.4414 6.55322
vn 0.888886 0.0480463 0.455603
vt 12.3283 7.20342
vt 10.1805 6.55322
vn -3.70384e-015 -0.00572431 0.999984
f 66/195/59 50/196/46 33/197/60

vt 12.0014 6.65698
vt 8.91809 6.04231
vt 8.99349 5.38667
f 46/198/42 50/199/46 66/200/59

vt 11.6754 7.45933
vt 8.66117 6.20412
vt 11.7903 6.20412
f 46/201/42 66/202/59 45/203/41

vt 11.7903 14.5984
vt 8.66117 14.5984
v 0.0646278 -0.0374606 0.315662
vt 8.58934 13.9044
vn 0.792986 -0.412289 0.448543
f 45/204/41 66/205/59 67/206/61

vt 12.4414 13.5749
vt 10.1805 13.5749
vt 12.3283 12.8865
f 66/207/59 33/208/58 67/209/61

vt 14.3512 15.1568
vt 12.2523 15.9824
vn -3.8035e-015 -0.00572431 0.999984
v 0.0369302 -0.0651558 0.315292
vt 14.0244 14.574
vn 0.479213 -0.756537 0.444979
f 67/210/61 33/211/62 68/212/63

vt 17.9042 9.11252
vt 16.6901 11.0231
vt 17.3108 8.84899
f 68/213/63 33/214/29 35/215/31

vt 18.5027 9.16635
vt 16.4296 11.5131
vt 15.8999 11.1377
f 39/216/35 68/217/63 35/218/31

vt 13.8046 16.9385
vt 10.5313 17.0985
vt 13.3646 15.7652
f 44/219/40 68/220/63 39/221/35

vt 13.7834 16.8414
vt 10.7389 17.626
vt 10.51 16.9983
f 44/222/40 67/223/61 68/224/63

vt 11.8214 12.7328
vt 11.9389 14.0261
vt 8.73651 13.339
f 44/225/40 45/226/41 67/227/61

vt 10.8726 18.6971
vt 10.5823 17.4781
f 40/101/36 44/228/40 39/229/35

f 44/228/40 40/101/36 42/100/38

usemtl _Red_
v 0.110224 -0.106828 0.0696886
vt 19.7962 8.47213
vn 0.0518384 0.0124376 0.998578
vt 20.3256 8.97903
vn 0.0350836 -0.0303279 0.998924
vt 19.881 8.55641
f 69/230/64 42/231/65 40/232/65

v 0.917753 -0.422179 0.0317528
vt 33.5819 3.08421
f 69/230/64 70/233/65 42/231/65

v 0.917126 -0.423265 0.0317419
vt 33.5712 3.06568
f 70/233/65 69/230/64 71/234/64

v 0.109794 -0.107238 0.0697409
vt 19.9569 8.85672
vn 0.132627 0.196148 0.971564
vt 33.7347 3.44533
vt 19.9643 8.86373
f 72/235/66 71/236/64 69/237/64

v 0.891008 -0.468564 0.0360467
vt 33.2845 2.67189
f 71/236/64 72/235/66 73/238/66

v 0.109207 -0.107724 0.0700387
vt 20.4005 8.66554
vn 0.272241 0.473663 0.837573
vt 33.5519 2.10138
vt 20.4113 8.67428
f 74/239/67 73/240/66 72/241/66

v 0.85711 -0.527662 0.0644263
vt 32.8835 1.03456
f 73/240/66 74/239/67 75/242/67

v 0.108859 -0.107952 0.0703918
vt 20.2559 4.95021
vn 0.341855 0.599161 0.723976
vt 31.7758 -4.07465
vt 20.2639 4.95502
f 76/243/68 75/244/67 74/245/67

v 0.838674 -0.560072 0.0999532
vt 31.2278 -4.76119
f 75/244/67 76/243/68 77/246/68

usemtl _Orange_
v 0.858627 -0.572432 0.100761
vt 31.5277 -5.02669
f 78/247/68 75/244/67 77/246/68

v 1.00173 -0.608866 0.063341
vt 34.0019 -5.82071
f 75/244/67 78/247/68 79/248/67

v 1.03866 -0.536857 0.0296783
vt 36.0355 0.859066
vt 35.2974 -0.44104
f 80/249/66 75/242/67 79/250/67

f 75/242/67 80/249/66 73/240/66

v 0.930179 -0.428384 0.031128
vt 33.9575 3.35768
vt 35.8035 1.50293
f 81/251/64 73/238/66 80/252/66

f 73/238/66 81/251/64 71/236/64

vt 33.7941 2.97822
f 70/233/65 71/234/64 81/253/64

usemtl _Red_
v 0.1509 -0.0392339 0.0703121
vt 20.4897 9.62529
f 42/231/65 70/233/65 82/254/65

usemtl _Orange_
vt 18.1699 10.1255
vt 15.4813 11.9783
vt 17.1776 9.33146
f 39/255/35 35/256/31 36/257/32

